# xmcd CD database file
#
# Track frame offsets:
#	150
#	13055
#	23195
#	37335
#	57460
#	69000
#	87505
#	102385
#	114915
#	129907
#	148205
#	165402
#	179145
#	191130
#
# Disc length: 2787 seconds
#
# Revision: 2
# Processed by: cddbd v1.4b42PL1 Copyright (c) Steve Scherf et al.
# Submitted via: CDex 1.40Beta8
#
DISCID=c90ae10e
DTITLE=Dead Ringer Band - Living In The Circle
DYEAR=1997
DGENRE=Country
TTITLE0=Too Confused
TTITLE1=Living In The Circle
TTITLE2=Halfway To Sydney
TTITLE3=Things Don't Come Easy
TTITLE4=That's What Makes A Broken Heart
TTITLE5=The Last Genaeration
TTITLE6=If I Needed You
TTITLE7=Too Many Friends
TTITLE8=Life's Little Mysteries
TTITLE9=Already Gone
TTITLE10=Loop Around Atlanta
TTITLE11=No Depression
TTITLE12=Am I The Only One
TTITLE13=Just Like Yesterday (Song for Gram)
EXTD=YEAR: 1997 ID3G: 2
EXTT0=
EXTT1=
EXTT2=
EXTT3=
EXTT4=
EXTT5=
EXTT6=
EXTT7=
EXTT8=
EXTT9=
EXTT10=
EXTT11=
EXTT12=
EXTT13=
PLAYORDER=
